# AST/ASF file generated using VICON BodyLanguage
# -----------------------------------------------
:version 1.10
:name VICON
:units
  mass 1.0
  length 0.45
  angle deg
:documentation
   .ast/.asf automatically generated from VICON data using
   VICON BodyBuilder and BodyLanguage model FoxedUp or BRILLIANT.MOD
:root
   order TX TY TZ RX RY RZ
   axis XYZ
   position 0 0 0  
   orientation 0 0 0 
:bonedata
  begin
     id 1 
     name lhipjoint
     direction 0.560651 -0.75055 0.34978 
     length 2.44936 
     axis 0 0 0  XYZ
  end
  begin
     id 2 
     name lfemur
     direction 0.34202 -0.939693 0  
     length 7.42139  
     axis 0 0 20  XYZ
    dof rx ry rz
    limits (-160.0 20.0)
           (-70.0 70.0)
           (-60.0 70.0)
  end
  begin
     id 3 
     name ltibia
     direction 0.34202 -0.939693 0   
     length 7.75674   
     axis 0 0 20   XYZ
    dof rx
    limits (-10.0 170.0)
  end
  begin
     id 4 
     name lfoot
     direction 0.0925879 -0.254383 0.962661   
     length 2.38688   
     axis -90 7.62852e-016 20   XYZ
    dof rx rz
    limits (-45.0 90.0)
           (-70.0 20.0)
  end
  begin
     id 5 
     name ltoes
     direction 1.53567e-011 -4.21973e-011 1   
     length 1.19228   
     axis -90 7.62852e-016 20   XYZ
    dof rx
    limits (-90.0 20.0)
  end
  begin
     id 6 
     name rhipjoint
     direction -0.540087 -0.762838 0.355506   
     length 2.4099  
     axis 0 0 0  XYZ 
  end
  begin
     id 7 
     name rfemur
     direction -0.34202 -0.939693 0   
     length 7.70794   
     axis 0 0 -20   XYZ
    dof rx ry rz
    limits (-160.0 20.0)
           (-70.0 70.0)
           (-70.0 60.0)
  end
  begin
     id 8 
     name rtibia
     direction -0.34202 -0.939693 0   
     length 7.66106   
     axis 0 0 -20   XYZ
    dof rx
    limits (-10.0 170.0)
 end
 begin
     id 9 
     name rfoot
     direction -0.0830975 -0.228308 0.970036   
     length 2.4989  
     axis -90 -7.62852e-016 -20   XYZ
    dof rx rz
    limits (-45.0 90.0)
           (-20.0 70.0)
  end
  begin
     id 10 
     name rtoes
     direction -1.53517e-011 -4.21842e-011 1   
     length 1.2498   
     axis -90 -7.62852e-016 -20   XYZ
    dof rx
    limits (-90.0 20.0)
  end
  begin
     id 11 
     name lowerback
     direction 0.0266356 0.99402 -0.105896   
     length 2.1545   
     axis 0 0 0   XYZ
    dof rx ry rz
    limits (-20.0 45.0)
           (-30.0 30.0)
           (-30.0 30.0)
  end
  begin
     id 12 
     name upperback
     direction 0.0130547 0.999192 0.0380027   
     length 2.1434   
     axis 0 0 0   XYZ
    dof rx ry rz
    limits (-20.0 45.0)
           (-30.0 30.0)
           (-30.0 30.0)
  end
  begin
     id 13 
     name thorax
     direction 0.000590299 0.996288 0.0860764   
     length 2.19049   
     axis 0 0 0   XYZ
    dof rx ry rz
    limits (-20.0 45.0)
           (-30.0 30.0)
           (-30.0 30.0)
  end
  begin
     id 14 
     name lowerneck
     direction -0.0432125 0.978219 0.203028   
     length 1.62441   
     axis 0 0 0   XYZ
    dof rx ry rz
    limits (-20.0 45.0)
           (-30.0 30.0)
           (-30.0 30.0)
  end
  begin
     id 15 
     name upperneck
     direction -0.0192309 0.991699 -0.127138   
     length 1.66666   
     axis 0 0 0   XYZ
    dof rx ry rz
    limits (-20.0 45.0)
           (-30.0 30.0)
           (-30.0 30.0)
  end
  begin
     id 16
     name head
     direction -0.00434499 0.997882 -0.0649107  
     length 1.67142  
     axis 0 0 0   XYZ
    dof rx ry rz
    limits (-20.0 45.0)
           (-30.0 30.0)
           (-30.0 30.0)
  end
  begin
     id 17 
     name lclavicle
     direction 0.970351 0.240904 -0.0196058  
     length 4.04862  
     axis 0 0 0   XYZ
    dof ry rz
    limits (-20.0 10.0)
           (0.0 20.0)
  end
  begin
     id 18 
     name lhumerus
     direction 1 -4.4896e-011 -1.40911e-018   
     length 5.58345   
     axis 180 -30 -90   XYZ
    dof rx ry rz
    limits (-60.0 90.0)
           (-90.0 90.0)
           (-90.0 90.0)
  end
  begin
     id 19
     name lradius
     direction 1 -4.48968e-011 5.88912e-028   
     length 3.71087   
     axis 180 -30 -90   XYZ
    dof rx
    limits (-10.0 170.0)
  end
  begin
     id 20
     name lwrist
     direction 1 -4.48955e-011 -8.83775e-028   
     length 1.85544   
     axis 5.52448e-016 90 90   XYZ
    dof ry
    limits (-180.0 0.0)
 end
  begin
     id 21 
     name lhand
     direction 1 -4.49035e-011 -1.76755e-027   
     length 0.562322   
     axis 1.12785e-015 90 90   XYZ
    dof rx rz
    limits (-90.0 90.0)
           (-45.0 45.0)
  end
  begin
     id 22 
     name lfingers
     direction 1 -4.48824e-011 -3.5351e-027   
     length 0.453359   
     axis 2.2557e-015 90 90   XYZ
    dof rx
    limits (0.0 90.0)
  end
  begin
     id 23
     name lthumb
     direction 0.707107 -6.34888e-011 0.707107   
     length 0.650935   
     axis -90 45 2.85299e-015   XYZ
    dof rx rz
    limits (-45.0 45.0)
           (-45.0 45.0)
  end
  begin
     id 24 
     name rclavicle
     direction -0.96165 0.268562 -0.0557131   
     length 4.05446  
     axis 0 0 0   XYZ 
    dof ry rz
    limits (-10.0 20.0)
           (-20.0 0.0)
  end
  begin
     id 25 
     name rhumerus
     direction -1 -4.48957e-011 -3.36329e-027  
     length 5.20357   
     axis 180 30 90   XYZ
    dof rx ry rz
    limits (-90.0 60.0)
           (-90.0 90.0)
           (-90.0 90.0)
  end
  begin
     id 26 
     name rradius
     direction -1 -4.48974e-011 4.51441e-027   
     length 3.64937   
     axis 180 30 90   XYZ
    dof rx
    limits (-10.0 170.0)
  end
  begin
     id 27 
     name rwrist
     direction -1 -4.4896e-011 -8.83775e-028   
     length 1.82468   
     axis 5.52448e-016 -90 -90   XYZ
    dof ry
    limits (-180.0 0.0)
  end
  begin
     id 28
     name rhand
     direction -1 -4.48996e-011 -1.76755e-027   
     length 0.617996   
     axis 1.12785e-015 -90 -90   XYZ
    dof rx rz
    limits (-90.0 90.0)
           (-45.0 45.0)
  end
  begin
     id 29
     name rfingers
     direction -1 -4.48957e-011 -3.5351e-027   
     length 0.498244   
     axis 2.2557e-015 -90 -90   XYZ
    dof rx
    limits (0.0 90.0)
  end
  begin
     id 30
     name rthumb
     direction -0.707107 -6.34931e-011 0.707107   
     length 0.715382   
     axis -90 -45 -2.85299e-015   XYZ
    dof rx rz
    limits (-45.0 45.0)
           (-45.0 45.0)
  end
:hierarchy
  begin
    root lhipjoint rhipjoint lowerback
    lhipjoint lfemur
    lfemur ltibia
    ltibia lfoot
    lfoot ltoes
    rhipjoint rfemur
    rfemur rtibia
    rtibia rfoot
    rfoot rtoes
    lowerback upperback
    upperback thorax
    thorax lowerneck lclavicle rclavicle
    lowerneck upperneck
    upperneck head
    lclavicle lhumerus
    lhumerus lradius
    lradius lwrist
    lwrist lhand lthumb
    lhand lfingers
    rclavicle rhumerus
    rhumerus rradius
    rradius rwrist
    rwrist rhand rthumb
    rhand rfingers
  end

#!OML:ASF H:\ManfredETheater\Project 1\Capture day 2\Session 1\Male1.ASF
:FULLY-SPECIFIED
:DEGREES
254
root -13.3945 12.6883 -21.6794 215.435 -9.08806 186.171
lowerback 45.2474 -4.12129 8.36038
upperback 9.03634 -4.40652 1.90787
thorax -10.8307 -3.36956 0.0606291
lowerneck -14.8057 7.74493 3.85803
upperneck -17.58 10.8423 -12.2856
head -2.00938 6.60583 -4.09444
rclavicle 3.02153e-014 3.10104e-014
rhumerus 37.1456 11.7364 -69.5007
rradius 32.9705
rwrist 14.8522
rhand -30.4052 -4.99203
rfingers 7.12502
rthumb -3.70879 -394.94
lclavicle 3.02153e-014 3.10104e-014
lhumerus 48.7573 0.356281 78.7977
lradius 20.773
lwrist -26.3795
lhand -13.0997 5.89044
lfingers 7.12502
lthumb 12.9971 35.4656
rfemur -107.809 -8.91411 32.5205
rtibia 117.21
rfoot -27.3725 -15.6395
rtoes -13.8038
lfemur -103.681 22.7875 -18.1824
ltibia 104.134
lfoot -28.4062 -19.3112
ltoes 4.68994
255
root -13.3715 12.7885 -21.6986 215.464 -9.25579 186.449
lowerback 44.9793 -3.91956 8.5247
upperback 8.81949 -3.98599 2.13443
thorax -10.9751 -3.17357 0.0269984
lowerneck -14.7712 7.52428 4.00956
upperneck -17.74 10.5756 -12.295
head -2.07342 6.49452 -4.14521
rclavicle 1.90833e-014 0
rhumerus 36.4655 11.5731 -69.356
rradius 33.8645
rwrist 14.0134
rhand -29.9055 -4.47454
rfingers 7.12502
rthumb -3.22617 -394.43
lclavicle 1.90833e-014 0
lhumerus 48.0015 -0.305788 77.9035
lradius 21.9212
lwrist -23.9135
lhand -12.5976 4.57059
lfingers 7.12502
lthumb 13.4811 34.1143
rfemur -106.969 -9.15449 30.9677
rtibia 114.25
rfoot -26.8741 -15.3832
rtoes -13.6278
lfemur -102.799 22.6918 -17.6589
ltibia 103.04
lfoot -28.676 -18.8409
ltoes 4.84454
256
root -13.3435 12.8871 -21.7204 215.463 -9.37673 186.682
lowerback 44.695 -3.67376 8.62505
upperback 8.61163 -3.54747 2.34154
thorax -11.1053 -2.96888 -0.0052736
lowerneck -14.7775 7.30157 4.15714
upperneck -17.8467 10.3098 -12.2886
head -2.11725 6.37956 -4.18646
rclavicle 9.54166e-015 8.34896e-015
rhumerus 35.6624 11.384 -69.2206
rradius 34.601
rwrist 13.2735
rhand -29.1163 -4.08217
rfingers 7.12502
rthumb -2.46402 -394.048
lclavicle 9.54166e-015 8.34896e-015
lhumerus 47.1579 -1.19639 76.7551
lradius 23.2013
lwrist -21.0014
lhand -12.4311 3.35437
lfingers 7.12502
lthumb 13.6415 32.8874
rfemur -105.936 -9.26857 29.3825
rtibia 111.237
rfoot -26.1245 -14.7681
rtoes -13.9035
lfemur -101.857 22.5926 -17.1174
ltibia 101.956
lfoot -28.9447 -18.3478
ltoes 4.90955
257
root -13.3121 12.9848 -21.7447 215.394 -9.49734 186.849
lowerback 44.4361 -3.42844 8.70168
upperback 8.41201 -3.12556 2.52693
thorax -11.2353 -2.77216 -0.0401974
lowerneck -14.8252 7.07959 4.29033
upperneck -17.9024 10.0501 -12.2581
head -2.14216 6.26384 -4.21391
rclavicle 2.78299e-014 5.36719e-015
rhumerus 34.7475 11.18 -69.1274
rradius 35.1637
rwrist 12.6003
rhand -28.3395 -3.77455
rfingers 7.12502
rthumb -1.71378 -393.747
lclavicle 2.78299e-014 5.36719e-015
lhumerus 46.2353 -2.27964 75.4251
lradius 24.5801
lwrist -17.9316
lhand -12.6378 2.29732
lfingers 7.12502
lthumb 13.4423 31.8436
rfemur -104.673 -9.32778 27.7947
rtibia 108.229
rfoot -25.0984 -13.877
rtoes -14.3976
lfemur -100.816 22.4308 -16.5471
ltibia 100.893
lfoot -29.202 -17.8211
ltoes 4.86829
258
root -13.2766 13.0777 -21.7715 215.292 -9.6141 186.967
lowerback 44.1271 -3.16817 8.73654
upperback 8.23508 -2.71542 2.70164
thorax -11.3267 -2.57935 -0.0637377
lowerneck -14.9253 6.85864 4.39422
upperneck -17.91 9.80018 -12.1932
head -2.14857 6.15021 -4.22175
rclavicle 7.95139e-016 -1.33186e-014
rhumerus 33.7467 10.9604 -69.0922
rradius 35.5487
rwrist 11.9836
rhand -27.7366 -3.55364
rfingers 7.12502
rthumb -1.13148 -393.53
lclavicle 7.95139e-016 -1.33186e-014
lhumerus 45.2428 -3.50795 74.0003
lradius 26.0289
lwrist -15.0531
lhand -13.3072 1.41908
lfingers 7.12502
lthumb 12.797 31.0069
rfemur -103.262 -9.31574 26.2555
rtibia 105.338
rfoot -23.9996 -12.7761
rtoes -14.7508
lfemur -99.7654 22.2399 -15.9707
ltibia 99.8809
lfoot -29.4147 -17.2908
ltoes 4.73826
259
root -13.2385 13.1668 -21.8008 215.135 -9.77913 187.026
lowerback 43.7883 -2.93578 8.78121
upperback 8.07487 -2.34348 2.86919
thorax -11.392 -2.40318 -0.0839669
lowerneck -15.0859 6.63853 4.46004
upperneck -17.8565 9.56012 -12.089
head -2.1318 6.03773 -4.2063
rclavicle 1.59028e-015 -3.67752e-014
rhumerus 32.6586 10.7173 -69.1401
rradius 35.7706
rwrist 11.4229
rhand -27.3666 -3.40572
rfingers 7.12502
rthumb -0.774193 -393.384
lclavicle 1.59028e-015 -3.67752e-014
lhumerus 44.1697 -4.80884 72.5992
lradius 27.5213
lwrist -12.7184
lhand -14.4631 0.707818
lfingers 7.12502
lthumb 11.6825 30.3621
rfemur -101.698 -9.29622 24.8171
rtibia 102.651
rfoot -23.1039 -11.5231
rtoes -15.6135
lfemur -98.6889 21.9709 -15.3791
ltibia 98.9233
lfoot -29.5742 -16.7609
ltoes 4.53032
